<svg xmlns="http://www.w3.org/2000/svg" viewBox="0 0 64 64">
  <defs>
    <linearGradient id="g" x1="0" y1="0" x2="1" y2="1">
      <stop offset="0%" stop-color="#25D366"/>
      <stop offset="100%" stop-color="#128C7E"/>
    </linearGradient>
  </defs>
  <rect width="64" height="64" rx="12" fill="url(#g)"/>
  <path fill="#fff" d="M32 14c-9.9 0-18 7.5-18 16.8 0 3.3 1 6.3 2.9 8.9L16 50l10.5-2.7c1.7.5 3.5.8 5.4.8 9.9 0 18-7.5 18-16.8S41.9 14 32 14zm9.9 23.9c-.4 1.2-2.1 2.2-2.9 2.3-.8.1-1.8.2-3-.2-1.1-.4-2.6-.9-4.4-1.9-3.9-2.1-6.4-5.6-6.6-5.9-.2-.3-1.6-2.1-1.6-4s1-2.8 1.4-3.2.8-.7 1.2-.8c.4-.1.9-.1 1.3 0 .4.1 1 .5 1.1 1 .2.5 1.3 3.2 1.4 3.4.1.3.2.6 0 1-.2.4-.3.6-.6 1-.3.3-.6.6-.9.9-.3.3-.6.5-.3 1 .3.5 1.4 2.3 3.1 3.8 2.1 1.8 3.8 2.3 4.4 2.6.6.2.9.2 1.3-.1.4-.3 1.5-1.1 1.9-1.6.5-.5.8-.4 1.3-.2.5.1 3.1 1.5 3.6 1.7.5.2.8.3.9.5.1.1.1 1-.3 2z"/>
</svg>
